# xmcd
#
# Track frame offsets:
#	150
#	12909
#	24006
#	46924
#	62998
#	77244
#	90896
#	105932
#	125099
#	139466
#
# Disc length: 2033 seconds
#
# Revision: 1
# Processed by: cddbd v1.5PL3 Copyright (c) Steve Scherf et al.
# Submitted via: EasyCDDAExtractor 6.5.0.1
#
DISCID=7607ef0a
DTITLE=Niki Dean - Cross the Battleline
DYEAR=2000
DGENRE=Country
TTITLE0=Like a Rocket
TTITLE1=Holdin Out for You
TTITLE2=The Riverside
TTITLE3=Corss the Battleline
TTITLE4=Heart of Stone
TTITLE5=When you love somebody
TTITLE6=I need My Baby back
TTITLE7=Never Cross that Line
TTITLE8=With a Boy Like You
TTITLE9=Prove it
EXTD=
EXTT0=
EXTT1=
EXTT2=
EXTT3=
EXTT4=
EXTT5=
EXTT6=
EXTT7=
EXTT8=
EXTT9=
PLAYORDER=
